<mxfile host="app.diagrams.net" agent="Mozilla/5.0 (Windows NT 10.0; Win64; x64) AppleWebKit/537.36 (KHTML, like Gecko) Chrome/130.0.0.0 Safari/537.36" version="24.8.4">
  <diagram name="Page-1" id="YcOEpoErmBQwb7hYkaZ9">
    <mxGraphModel dx="436" dy="463" grid="1" gridSize="10" guides="1" tooltips="1" connect="1" arrows="1" fold="1" page="1" pageScale="1" pageWidth="850" pageHeight="1100" math="0" shadow="0">
      <root>
        <mxCell id="0" />
        <mxCell id="1" parent="0" />
        <mxCell id="WRelQqV_4oCyOXIMtbmb-1" value="User" style="shape=umlActor;verticalLabelPosition=bottom;verticalAlign=top;html=1;outlineConnect=0;" vertex="1" parent="1">
          <mxGeometry x="280" y="210" width="20" height="40" as="geometry" />
        </mxCell>
        <mxCell id="WRelQqV_4oCyOXIMtbmb-2" value="Admin" style="shape=umlActor;verticalLabelPosition=bottom;verticalAlign=top;html=1;outlineConnect=0;" vertex="1" parent="1">
          <mxGeometry x="280" y="380" width="20" height="40" as="geometry" />
        </mxCell>
        <mxCell id="WRelQqV_4oCyOXIMtbmb-4" value="&lt;font style=&quot;font-size: 9px;&quot;&gt;Borrow Book&lt;/font&gt;" style="ellipse;whiteSpace=wrap;html=1;" vertex="1" parent="1">
          <mxGeometry x="320" y="120" width="60" height="50" as="geometry" />
        </mxCell>
        <mxCell id="WRelQqV_4oCyOXIMtbmb-5" value="&lt;font style=&quot;font-size: 9px;&quot;&gt;Return Book&lt;/font&gt;" style="ellipse;whiteSpace=wrap;html=1;" vertex="1" parent="1">
          <mxGeometry x="370" y="160" width="60" height="50" as="geometry" />
        </mxCell>
        <mxCell id="WRelQqV_4oCyOXIMtbmb-6" value="&lt;font style=&quot;font-size: 9px;&quot;&gt;Search Book&lt;/font&gt;" style="ellipse;whiteSpace=wrap;html=1;" vertex="1" parent="1">
          <mxGeometry x="380" y="220" width="60" height="50" as="geometry" />
        </mxCell>
        <mxCell id="WRelQqV_4oCyOXIMtbmb-7" value="&lt;font style=&quot;font-size: 9px;&quot;&gt;View Due Date&lt;/font&gt;" style="ellipse;whiteSpace=wrap;html=1;" vertex="1" parent="1">
          <mxGeometry x="340" y="280" width="60" height="50" as="geometry" />
        </mxCell>
        <mxCell id="WRelQqV_4oCyOXIMtbmb-8" value="&lt;font style=&quot;font-size: 9px;&quot;&gt;Manage Inteventory&lt;/font&gt;" style="ellipse;whiteSpace=wrap;html=1;" vertex="1" parent="1">
          <mxGeometry x="350" y="370" width="60" height="50" as="geometry" />
        </mxCell>
        <mxCell id="WRelQqV_4oCyOXIMtbmb-9" value="&lt;font style=&quot;font-size: 9px;&quot;&gt;Generate Overdue Report&lt;/font&gt;" style="ellipse;whiteSpace=wrap;html=1;" vertex="1" parent="1">
          <mxGeometry x="350" y="430" width="60" height="50" as="geometry" />
        </mxCell>
        <mxCell id="WRelQqV_4oCyOXIMtbmb-13" value="" style="endArrow=classic;html=1;rounded=0;entryX=0;entryY=1;entryDx=0;entryDy=0;" edge="1" parent="1" target="WRelQqV_4oCyOXIMtbmb-4">
          <mxGeometry width="50" height="50" relative="1" as="geometry">
            <mxPoint x="290" y="210" as="sourcePoint" />
            <mxPoint x="340" y="160" as="targetPoint" />
          </mxGeometry>
        </mxCell>
        <mxCell id="WRelQqV_4oCyOXIMtbmb-16" value="" style="endArrow=classic;html=1;rounded=0;entryX=0;entryY=0.5;entryDx=0;entryDy=0;" edge="1" parent="1" target="WRelQqV_4oCyOXIMtbmb-5">
          <mxGeometry width="50" height="50" relative="1" as="geometry">
            <mxPoint x="298" y="223" as="sourcePoint" />
            <mxPoint x="368" y="188.00000000000006" as="targetPoint" />
            <Array as="points" />
          </mxGeometry>
        </mxCell>
        <mxCell id="WRelQqV_4oCyOXIMtbmb-17" value="" style="endArrow=classic;html=1;rounded=0;entryX=0.072;entryY=0.287;entryDx=0;entryDy=0;entryPerimeter=0;" edge="1" parent="1" target="WRelQqV_4oCyOXIMtbmb-6">
          <mxGeometry width="50" height="50" relative="1" as="geometry">
            <mxPoint x="290.5" y="237" as="sourcePoint" />
            <mxPoint x="329.5" y="190" as="targetPoint" />
          </mxGeometry>
        </mxCell>
        <mxCell id="WRelQqV_4oCyOXIMtbmb-18" value="" style="endArrow=classic;html=1;rounded=0;entryX=0;entryY=0;entryDx=0;entryDy=0;" edge="1" parent="1" target="WRelQqV_4oCyOXIMtbmb-7">
          <mxGeometry width="50" height="50" relative="1" as="geometry">
            <mxPoint x="301" y="250" as="sourcePoint" />
            <mxPoint x="340" y="203" as="targetPoint" />
          </mxGeometry>
        </mxCell>
        <mxCell id="WRelQqV_4oCyOXIMtbmb-24" value="" style="endArrow=classic;html=1;rounded=0;entryX=0.078;entryY=0.29;entryDx=0;entryDy=0;entryPerimeter=0;exitX=0.75;exitY=0.1;exitDx=0;exitDy=0;exitPerimeter=0;" edge="1" parent="1" source="WRelQqV_4oCyOXIMtbmb-2" target="WRelQqV_4oCyOXIMtbmb-8">
          <mxGeometry width="50" height="50" relative="1" as="geometry">
            <mxPoint x="300" y="387" as="sourcePoint" />
            <mxPoint x="329" y="340" as="targetPoint" />
          </mxGeometry>
        </mxCell>
        <mxCell id="WRelQqV_4oCyOXIMtbmb-25" value="" style="endArrow=classic;html=1;rounded=0;entryX=0.009;entryY=0.347;entryDx=0;entryDy=0;entryPerimeter=0;" edge="1" parent="1" target="WRelQqV_4oCyOXIMtbmb-9">
          <mxGeometry width="50" height="50" relative="1" as="geometry">
            <mxPoint x="301" y="418.5" as="sourcePoint" />
            <mxPoint x="340" y="371.5" as="targetPoint" />
          </mxGeometry>
        </mxCell>
        <mxCell id="WRelQqV_4oCyOXIMtbmb-26" value="&lt;font style=&quot;font-size: 9px;&quot;&gt;Check Availability&lt;/font&gt;" style="ellipse;whiteSpace=wrap;html=1;" vertex="1" parent="1">
          <mxGeometry x="170" y="80" width="60" height="50" as="geometry" />
        </mxCell>
        <mxCell id="WRelQqV_4oCyOXIMtbmb-28" value="" style="endArrow=none;dashed=1;html=1;rounded=0;entryX=0;entryY=0;entryDx=0;entryDy=0;" edge="1" parent="1" source="WRelQqV_4oCyOXIMtbmb-26" target="WRelQqV_4oCyOXIMtbmb-4">
          <mxGeometry width="50" height="50" relative="1" as="geometry">
            <mxPoint x="339.28932188134524" y="155" as="sourcePoint" />
            <mxPoint x="339.28932188134524" y="105" as="targetPoint" />
          </mxGeometry>
        </mxCell>
        <mxCell id="WRelQqV_4oCyOXIMtbmb-29" value="&amp;lt;&amp;lt;include&amp;gt;&amp;gt;" style="edgeLabel;html=1;align=center;verticalAlign=middle;resizable=0;points=[];" vertex="1" connectable="0" parent="WRelQqV_4oCyOXIMtbmb-28">
          <mxGeometry x="-0.2055" y="4" relative="1" as="geometry">
            <mxPoint as="offset" />
          </mxGeometry>
        </mxCell>
      </root>
    </mxGraphModel>
  </diagram>
</mxfile>
